<svg width="222" height="72" viewBox="0 0 222 72" fill="none" xmlns="http://www.w3.org/2000/svg">
<path d="M62.25 12L69.1667 21H58.7917L51.875 12H44.9583L51.875 21H41.5L34.5833 12H27.6667L34.5833 21H24.2083L17.2917 12H13.8333C10.0292 12 6.95124 14.7 6.95124 18L6.91666 54C6.91666 57.3 10.0292 60 13.8333 60H69.1667C72.9708 60 76.0833 57.3 76.0833 54V12H62.25ZM38.9062 45.75L34.5833 54L30.2604 45.75L20.75 42L30.2604 38.25L34.5833 30L38.9062 38.25L48.4167 42L38.9062 45.75ZM58.5842 35.82L55.3333 42L52.0825 35.82L44.9583 33L52.0825 30.18L55.3333 24L58.5842 30.18L65.7083 33L58.5842 35.82Z" fill="#C4BD1D" fill-opacity="0.88"/>
<g style="mix-blend-mode:darken">
<path d="M83.9844 51V48.7852L86.8496 48.293V28.1309L83.9844 27.6387V25.4062H103.232V31.5586H100.455L100.068 28.0957H90.3125V36.9551H99.6816V39.6797H90.3125V48.293L93.1777 48.7852V51H83.9844ZM105.816 51V48.7852L108.682 48.293V34.7051L105.816 34.2129V31.9805H112.145V48.293L115.01 48.7852V51H105.816ZM108.506 27.2871V23.5781H112.145V27.2871H108.506ZM117.225 51V48.7852L120.09 48.293V26.3027L117.225 25.8105V23.5781H123.553V48.293L126.418 48.7852V51H117.225ZM128.896 51V48.7852L131.762 48.293V34.7051L128.896 34.2129V31.9805H134.873L135.102 34.459C135.711 33.5566 136.496 32.8594 137.457 32.3672C138.418 31.875 139.531 31.6289 140.797 31.6289C142.062 31.6289 143.146 31.9219 144.049 32.5078C144.963 33.0938 145.648 33.9727 146.105 35.1445C146.703 34.0664 147.494 33.2109 148.479 32.5781C149.463 31.9453 150.611 31.6289 151.924 31.6289C153.869 31.6289 155.404 32.2969 156.529 33.6328C157.654 34.957 158.217 36.9551 158.217 39.627V48.293L161.082 48.7852V51H151.871V48.7852L154.736 48.293V39.5918C154.736 37.7168 154.414 36.3926 153.77 35.6191C153.125 34.834 152.17 34.4414 150.904 34.4414C149.697 34.4414 148.725 34.8691 147.986 35.7246C147.26 36.5684 146.838 37.6348 146.721 38.9238V48.293L149.586 48.7852V51H140.393V48.7852L143.258 48.293V39.5918C143.258 37.8105 142.924 36.5098 142.256 35.6895C141.6 34.8574 140.645 34.4414 139.391 34.4414C138.336 34.4414 137.469 34.6582 136.789 35.0918C136.109 35.5254 135.588 36.1348 135.225 36.9199V48.293L138.09 48.7852V51H128.896ZM163.789 51V48.7852L166.654 48.293V28.1309L163.789 27.6387V25.4062H173.809C176.07 25.4062 178.039 25.9453 179.715 27.0234C181.402 28.1016 182.715 29.584 183.652 31.4707C184.59 33.3574 185.059 35.5137 185.059 37.9395V38.4844C185.059 40.8516 184.607 42.9844 183.705 44.8828C182.803 46.7695 181.52 48.2637 179.855 49.3652C178.203 50.4551 176.246 51 173.984 51H163.789ZM170.117 48.293H173.809C175.426 48.293 176.814 47.8535 177.975 46.9746C179.135 46.084 180.025 44.9004 180.646 43.4238C181.279 41.9355 181.596 40.2891 181.596 38.4844V37.9043C181.596 36.041 181.279 34.377 180.646 32.9121C180.025 31.4355 179.135 30.2695 177.975 29.4141C176.814 28.5586 175.426 28.1309 173.809 28.1309H170.117V48.293ZM187.625 51V48.7852L190.49 48.293V28.1309L187.625 27.6387V25.4062H198.664C201.336 25.4062 203.422 25.9863 204.922 27.1465C206.434 28.2949 207.189 30.0234 207.189 32.332C207.189 33.4688 206.826 34.4883 206.1 35.3906C205.385 36.2812 204.436 36.9434 203.252 37.377C204.787 37.7051 206 38.4609 206.891 39.6445C207.781 40.8281 208.227 42.2051 208.227 43.7754C208.227 46.1191 207.465 47.9121 205.941 49.1543C204.418 50.3848 202.355 51 199.754 51H187.625ZM193.953 36.2871H199.561C200.803 36.2871 201.805 35.9297 202.566 35.2148C203.34 34.4883 203.727 33.5039 203.727 32.2617C203.727 30.8789 203.293 29.8477 202.426 29.168C201.559 28.4766 200.305 28.1309 198.664 28.1309H193.953V36.2871ZM193.953 48.293H199.754C201.336 48.293 202.561 47.9062 203.428 47.1328C204.307 46.3477 204.746 45.2402 204.746 43.8105C204.746 42.3105 204.377 41.1328 203.639 40.2773C202.912 39.4219 201.793 38.9941 200.281 38.9941H193.953V48.293Z" fill="white" fill-opacity="0.73"/>
</g>
</svg>
